<svg xmlns="http://www.w3.org/2000/svg" width="144" height="144" style=""><rect id="backgroundrect" width="100%" height="100%" x="0" y="0" fill="none" stroke="none"/><defs><linearGradient id="svg_9" x1="0.45703125" y1="0.37890625"><stop stop-color="#e76767" stop-opacity="1" offset="0"/><stop stop-color="#189898" stop-opacity="1" offset="1"/></linearGradient><linearGradient id="svg_10" x1="0.30078125" y1="0.71875"><stop stop-color="#4a90d6" stop-opacity="1" offset="0"/><stop stop-color="#b56f29" stop-opacity="1" offset="1"/></linearGradient><linearGradient id="svg_2" spreadMethod="pad" x1="0.11328125" y1="0.875"><stop stop-color="#2979ff" stop-opacity="1" offset="0.23046875"/><stop stop-color="#042df7" stop-opacity="0.99609375" offset="1"/></linearGradient></defs><title>ic_icons_144px_light</title><g class="currentLayer" style=""><title>Layer 1</title><circle cx="72" cy="72" r="72" fill="url(#svg_2)" id="svg_1" class="selected" fill-opacity="1"/><circle cx="72" cy="72" r="48" fill="#40c4ff" id="svg_3" class=""/><circle cx="72" cy="72" r="24" fill="#fff" id="svg_4"/><path fill="#ffffff" style="color: rgb(0, 0, 0);" stroke-width="62" stroke-dashoffset="" fill-rule="nonzero" marker-start="" marker-mid="" marker-end="" id="svg_5" d="M72.36524105072021,47.93208312988281 L96.22200679779053,47.93208312988281 L96.22200679779053,47.93208312988281 C109.39600276947021,47.93208312988281 120.07660579681396,58.69432067871094 120.07660579681396,71.97105407714844 C120.07660579681396,85.24592590332031 109.39600276947021,96.00829315185547 96.22200679779053,96.00829315185547 L72.36524105072021,96.00829315185547 L72.36524105072021,47.93208312988281 z" class=""/><path fill="url(#svg_9)" style="color: rgb(0, 0, 0);" stroke-width="62" stroke-dashoffset="" fill-rule="nonzero" marker-start="" marker-mid="" marker-end="" id="svg_6" d="M108.5272889137268,63.9807071685791 C108.5209412574768,60.39962196350098 105.61862802505493,57.49472999572754 102.03916788101196,57.49046516418457 L102.03916788101196,57.49046516418457 L82.155752658844,57.49046516418457 C81.33669900894165,54.86001777648926 78.89326333999634,52.93305778503418 75.98406839370728,52.93163871765137 L71.31884622573853,52.93163871765137 C67.73653268814087,52.93305778503418 64.83549356460571,55.83664894104004 64.8291687965393,59.418935775756836 L64.8291687965393,82.43467903137207 C64.83549356460571,86.01237678527832 67.73653268814087,88.91452980041504 71.31884622573853,88.9217700958252 L102.04189920425415,88.9217700958252 C105.61862802505493,88.91452980041504 108.52235269546509,86.01237678527832 108.5272889137268,82.43467903137207 L108.5272889137268,63.9807071685791 L108.5272889137268,63.9807071685791 zM71.31884622573853,56.17283058166504 L75.98406839370728,56.17283058166504 C77.6805329322815,56.16575813293457 79.09321451187134,57.52559852600098 79.20027780532837,59.21606636047363 L79.29376077651978,60.73611640930176 L102.04189920425415,60.73611640930176 C103.81442880630493,60.73753547668457 105.27892923355103,62.20576286315918 105.28407907485962,63.9807071685791 L105.28407907485962,64.78250694274902 C104.32517862319946,64.22342109680176 103.22767496109009,63.87851905822754 102.03916788101196,63.87851905822754 L71.31884622573853,63.87851905822754 C70.12996530532837,63.87851905822754 69.03142404556274,64.22628211975098 68.07365274429321,64.78532600402832 L68.07365274429321,59.41610145568848 C68.07873392105103,57.6411190032959 69.54328775405884,56.1756649017334 71.31884622573853,56.17283058166504 zM102.03916788101196,85.67606544494629 L71.31884622573853,85.67606544494629 C69.54617929458618,85.67463874816895 68.08016061782837,84.20334815979004 68.07365274429321,82.43467903137207 L68.07365274429321,70.36713600158691 L68.0755066871643,70.36713600158691 C68.07873392105103,68.58987998962402 69.54328775405884,67.1242733001709 71.31884622573853,67.1214542388916 L102.04189920425415,67.1214542388916 C103.81442880630493,67.1242733001709 105.2689881324768,68.58321571350098 105.28407907485962,70.35064125061035 L105.28407907485962,82.43154335021973 C105.27892923355103,84.20903205871582 103.81155252456665,85.67463874816895 102.03916788101196,85.67606544494629 z" class="" fill-opacity="1" stroke="none"/></g></svg>